<!--<svg xmlns="http://www.w3.org/2000/svg" viewBox="0 0 53 53" id="target">-->
<!--    <path d="M26.5 15A31.8 31.8 0 0 0 2.76 25.83a1 1 0 0 0 0 1.34A31.8 31.8 0 0 0 26.5 38a31.8 31.8 0 0 0 23.74-10.83 1 1 0 0 0 0-1.34A31.8 31.8 0 0 0 26.5 15Zm0 21a29.76 29.76 0 0 1-21.64-9.5A29.76 29.76 0 0 1 26.5 17a29.76 29.76 0 0 1 21.64 9.5A29.76 29.76 0 0 1 26.5 36Z"></path>-->
<!--    <path d="M19 26.5a7.55 7.55 0 1 0 7.5-7.5 7.55 7.55 0 0 0-7.5 7.5Zm13.1 0a5.55 5.55 0 1 1-5.6-5.5 5.56 5.56 0 0 1 5.55 5.5Z"></path>-->
<!--    <path d="M23.2 26.5a3.3 3.3 0 1 0 3.3-3.3 3.3 3.3 0 0 0-3.3 3.3zm4.6 0a1.3 1.3 0 1 1-1.3-1.3 1.31 1.31 0 0 1 1.3 1.3zM3.5 35.58a1 1 0 0 0-1 1V49.5a1 1 0 0 0 1 1h12.92a1 1 0 0 0 0-2H4.5V36.58a1 1 0 0 0-1-1zm46 0a1 1 0 0 0-1 1V48.5H36.58a1 1 0 0 0 0 2H49.5a1 1 0 0 0 1-1V36.58a1 1 0 0 0-1-1zm-46-18.16a1 1 0 0 0 1-1V4.5h11.92a1 1 0 0 0 0-2H3.5a1 1 0 0 0-1 1v12.92a1 1 0 0 0 1 1zm46 0a1 1 0 0 0 1-1V3.5a1 1 0 0 0-1-1H36.58a1 1 0 0 0 0 2H48.5v11.92a1 1 0 0 0 1 1z"></path>-->
<!--</svg>-->

<svg xmlns="http://www.w3.org/2000/svg" width="32" height="32" id="detective">
    <g fill="none" stroke="#000">
        <path stroke-linecap="round" stroke-linejoin="round" d="M.5 12.25A11.75 11.75 0 0 0 12.25 24 11.75 11.75 0 0 0 24 12.25 11.75 11.75 0 0 0 12.25.5 11.75 11.75 0 0 0 .5 12.25z"></path>
        <path d="m24 24-3.25-3.25"></path>
        <path stroke-linecap="round" stroke-linejoin="round" d="m22.5 25.212 2.712-2.712 6.288 6.288-2.712 2.712z"></path>
        <path stroke-linejoin="round" d="M6.5 19.75 7 16.58a2.456 2.456 0 0 1 1.794-1.99L11 14l1.5 3.5L14 14l2.2.587a2.49 2.49 0 0 1 1.814 1.996L18.5 19.5"></path>
        <path stroke-linecap="round" stroke-linejoin="round" d="m10 14.25-.5 1.5 1 .5-.5.75 2.5 4.75m2.5-7.5.5 1.5-1 .5.5.75-2.5 4.75m-4.243-11.5h7.986m-6.616-.007.867-2.493a.352.352 0 0 1 .507-.21l.663.397a1.11 1.11 0 0 0 1.055 0l.663-.394a.356.356 0 0 1 .507.207l.983 2.493"></path>
        <path stroke-linecap="round" stroke-linejoin="round" d="M17.385 4.258a9.5 9.5 0 0 0-12.324 1.78 9.5 9.5 0 0 0 .025 12.452 9.5 9.5 0 0 0 12.33 1.732A9.5 9.5 0 0 0 20.87 8.258"></path>
    </g>
</svg>