<svg xmlns="http://www.w3.org/2000/svg" width="32" height="32" viewBox="0 0 32 32" id="detective">
    <g transform="translate(1394.942 -730.882)">
        <path fill="#586597" d="m -1382.6922,730.88244 c -6.7595,0 -12.25,5.4905 -12.25,12.25 0,6.7596 5.4905,12.25 12.25,12.25 6.7596,0 12.25,-5.4904 12.25,-12.25 0,-6.7595 -5.4904,-12.25 -12.25,-12.25 z" color="#000" font-family="sans-serif" font-weight="400" overflow="visible" style="line-height:normal;font-variant-ligatures:normal;font-variant-position:normal;font-variant-caps:normal;font-variant-numeric:normal;font-variant-alternates:normal;font-feature-settings:normal;text-indent:0;text-align:start;text-decoration-line:none;text-decoration-style:solid;text-decoration-color:#000;text-transform:none;text-orientation:mixed;shape-padding:0;isolation:auto;mix-blend-mode:normal"></path>
        <path fill="#fff" d="m -1382.6922,731.88244 c 6.2192,0 11.25,5.0309 11.25,11.25 0,6.2192 -5.0308,11.25 -11.25,11.25 -6.2191,0 -11.25,-5.0308 -11.25,-11.25 0,-6.2191 5.0309,-11.25 11.25,-11.25 z" color="#000" font-family="sans-serif" font-weight="400" overflow="visible" style="line-height:normal;font-variant-ligatures:normal;font-variant-position:normal;font-variant-caps:normal;font-variant-numeric:normal;font-variant-alternates:normal;font-feature-settings:normal;text-indent:0;text-align:start;text-decoration-line:none;text-decoration-style:solid;text-decoration-color:#000;text-transform:none;text-orientation:mixed;shape-padding:0;isolation:auto;mix-blend-mode:normal"></path>
        <path fill="#586597" fill-rule="evenodd" d="m -1373.8379,751.2793 -0.707,0.70703 3.25,3.25 0.707,-0.70703 z" color="#000" font-family="sans-serif" font-weight="400" overflow="visible" style="line-height:normal;font-variant-ligatures:normal;font-variant-position:normal;font-variant-caps:normal;font-variant-numeric:normal;font-variant-alternates:normal;font-feature-settings:normal;text-indent:0;text-align:start;text-decoration-line:none;text-decoration-style:solid;text-decoration-color:#000;text-transform:none;text-orientation:mixed;shape-padding:0;isolation:auto;mix-blend-mode:normal"></path>
        <path fill="#586597" d="m -1369.7371,752.88244 a 0.50004997,0.50004997 0 0 0 -0.3457,0.1465 l -2.7129,2.7129 a 0.50004997,0.50004997 0 0 0 0,0.707 l 6.2871,6.2871 a 0.50004997,0.50004997 0 0 0 0.707,0 l 2.7129,-2.7109 a 0.50004997,0.50004997 0 0 0 0,-0.707 l -6.2871,-6.2891 a 0.50004997,0.50004997 0 0 0 -0.3613,-0.1465 z" color="#000" font-family="sans-serif" font-weight="400" overflow="visible" style="line-height:normal;font-variant-ligatures:normal;font-variant-position:normal;font-variant-caps:normal;font-variant-numeric:normal;font-variant-alternates:normal;font-feature-settings:normal;text-indent:0;text-align:start;text-decoration-line:none;text-decoration-style:solid;text-decoration-color:#000;text-transform:none;text-orientation:mixed;shape-padding:0;isolation:auto;mix-blend-mode:normal"></path>
        <path fill="#f6c490" d="m -1369.7291,754.08954 5.5801,5.582 -2.0059,2.0039 -5.5801,-5.5801 z" color="#000" font-family="sans-serif" font-weight="400" overflow="visible" style="line-height:normal;font-variant-ligatures:normal;font-variant-position:normal;font-variant-caps:normal;font-variant-numeric:normal;font-variant-alternates:normal;font-feature-settings:normal;text-indent:0;text-align:start;text-decoration-line:none;text-decoration-style:solid;text-decoration-color:#000;text-transform:none;text-orientation:mixed;shape-padding:0;isolation:auto;mix-blend-mode:normal"></path>
        <circle cx="-1382.692" cy="743.134" r="9.75" fill="#d7edf2"></circle>
        <path fill="#586597" fill-rule="evenodd" d="m -1382.3711,733.13954 c -0.5858,-0.0183 -1.1716,0.0141 -1.75,0.0977 -2.3135,0.3342 -4.5105,1.47562 -6.1367,3.35742 -3.2525,3.7638 -3.2422,9.35682 0.025,13.10742 1.994,2.28897 4.8338,3.46355 7.6933,3.42188 a 0.50104256,0.50104256 0 0 0 0,0.002 0.50104256,0.50104256 0 0 0 0.016,0.002 0.50104256,0.50104256 0 0 0 0.035,0.004 0.50104256,0.50104256 0 0 0 0.064,0.002 0.50104256,0.50104256 0 0 0 0.016,-0.002 0.50104256,0.50104256 0 0 0 0.029,-0.002 0.50104256,0.50104256 0 0 0 0.01,0 0.50104256,0.50104256 0 0 0 0.019,-0.004 c 1.7626,-0.0593 3.5259,-0.58388 5.0957,-1.60156 4.1741,-2.7059 5.7251,-8.07995 3.6348,-12.59375 a 0.50028993,0.50028993 0 0 0 -0.9082,0.41992 c 1.5689,3.388 0.8577,7.29709 -1.5937,9.91992 l -0.3145,-1.88476 c -0.1926,-1.156 -1.0474,-2.09644 -2.1797,-2.39844 l -1.0644,-0.2832 v 0 a 0.50005,0.50005 0 0 0 -0.2832,-0.0781 l -0.8457,-0.22461 a 0.50004997,0.50004997 0 0 0 -0.5879,0.28711 l -1.041,2.42969 -1.041,-2.42969 a 0.50004997,0.50004997 0 0 0 -0.4766,-0.30273 v -0.002 a 0.50004997,0.50004997 0 0 0 -0.1113,0.0176 l -0.8477,0.22656 a 0.50005,0.50005 0 0 0 -0.018,-0.002 0.50005,0.50005 0 0 0 -0.2696,0.0781 l -1.0703,0.28515 c -1.1286,0.301 -1.976,1.24269 -2.1582,2.39649 l -0.3711,2.34765 c -0.2337,-0.21679 -0.4602,-0.44427 -0.6738,-0.68945 -2.9454,-3.3809 -2.9553,-8.40417 -0.024,-11.79687 2.9319,-3.3927 7.9036,-4.10975 11.6758,-1.68555 a 0.50033236,0.50033236 0 1 0 0.541,-0.8418 c -1.5692,-1.00845 -3.3284,-1.52529 -5.0859,-1.58008 z" color="#000" font-family="sans-serif" font-weight="400" overflow="visible" style="line-height:normal;font-variant-ligatures:normal;font-variant-position:normal;font-variant-caps:normal;font-variant-numeric:normal;font-variant-alternates:normal;font-feature-settings:normal;text-indent:0;text-align:start;text-decoration-line:none;text-decoration-style:solid;text-decoration-color:#000;text-transform:none;text-orientation:mixed;shape-padding:0;isolation:auto;mix-blend-mode:normal"></path>
        <path fill="#c6c6c6" fill-rule="evenodd" d="m -1384.2305,745.47939 1.3301,3.10156 a 0.50004997,0.50004997 0 0 0 0.918,0 l 1.3301,-3.10156 0.3281,0.0879 0.2715,0.8125 -0.6114,0.30469 a 0.50005,0.50005 0 0 0 -0.1933,0.72461 l 0.3359,0.5039 -1.9199,3.64453 -1.9199,-3.64453 0.3359,-0.5039 a 0.50005,0.50005 0 0 0 -0.1934,-0.72461 l -0.6113,-0.30469 0.2715,-0.8125 z" color="#000" font-family="sans-serif" font-weight="400" overflow="visible" style="line-height:normal;font-variant-ligatures:normal;font-variant-position:normal;font-variant-caps:normal;font-variant-numeric:normal;font-variant-alternates:normal;font-feature-settings:normal;text-indent:0;text-align:start;text-decoration-line:none;text-decoration-style:solid;text-decoration-color:#000;text-transform:none;text-orientation:mixed;shape-padding:0;isolation:auto;mix-blend-mode:normal"></path>
        <path fill="#a0a0a0" fill-rule="evenodd" d="M-1385.7168 745.87587l-.1992.59766a.50005.50005 0 0 0 .2519.60547l.4922.24609-.1855.2793a.50005.50005 0 0 0-.027.51172l2.1016 3.99414c-1.6443-.10845-3.2484-.66901-4.625-1.65039l.4609-2.91797c.1209-.7656.6808-1.38624 1.4297-1.58594zM-1379.166 745.87587l.2949.0781c.7555.2015 1.3226.8245 1.4512 1.5957l.4219 2.54492c-.2548.20801-.5172.40726-.7989.58985-1.1752.76185-2.4684 1.21935-3.7812 1.38281l2.0801-3.95117a.50005.50005 0 0 0-.027-.51172l-.1855-.2793.4921-.24609a.50005.50005 0 0 0 .252-.60547z" color="#000" font-family="sans-serif" font-weight="400" overflow="visible" style="line-height:normal;font-variant-ligatures:normal;font-variant-position:normal;font-variant-caps:normal;font-variant-numeric:normal;font-variant-alternates:normal;font-feature-settings:normal;text-indent:0;text-align:start;text-decoration-line:none;text-decoration-style:solid;text-decoration-color:#000;text-transform:none;text-orientation:mixed;shape-padding:0;isolation:auto;mix-blend-mode:normal"></path>
        <path fill="#586597" fill-rule="evenodd" d="m -1384.0742,738.29394 c -0.3772,-0.014 -0.7473,0.22104 -0.8555,0.61524 l -0.7422,2.13281 h -1.0117 a 0.50004997,0.50004997 0 1 0 0,1 h 6.5274 a 0.50004997,0.50004997 0 0 0 0.1894,0 h 1.2676 a 0.50004997,0.50004997 0 1 0 0,-1 h -1.0274 l -0.8457,-2.14062 c -0.075,-0.2581 -0.2624,-0.44887 -0.4902,-0.54297 -0.2278,-0.094 -0.4972,-0.0909 -0.7344,0.0371 a 0.50004997,0.50004997 0 0 0 -0.018,0.01 l -0.6484,0.38477 c -0.1783,0.096 -0.398,0.096 -0.5762,0 l -0.6445,-0.38477 a 0.50004997,0.50004997 0 0 0 -0.019,-0.0117 c -0.1175,-0.0636 -0.2454,-0.0949 -0.3711,-0.0996 z" color="#000" font-family="sans-serif" font-weight="400" overflow="visible" style="line-height:normal;font-variant-ligatures:normal;font-variant-position:normal;font-variant-caps:normal;font-variant-numeric:normal;font-variant-alternates:normal;font-feature-settings:normal;text-indent:0;text-align:start;text-decoration-line:none;text-decoration-style:solid;text-decoration-color:#000;text-transform:none;text-orientation:mixed;shape-padding:0;isolation:auto;mix-blend-mode:normal"></path>
        <path fill="#91a6b8" fill-rule="evenodd" d="m -1381.4648,739.36035 0.664,1.68164 h -3.8125 l 0.584,-1.67969 0.4961,0.29688 a 0.50004997,0.50004997 0 0 0 0.018,0.01 c 0.4772,0.2584 1.054,0.2584 1.5312,0 a 0.50004997,0.50004997 0 0 0 0.018,-0.01 z" color="#000" font-family="sans-serif" font-weight="400" overflow="visible" style="line-height:normal;font-variant-ligatures:normal;font-variant-position:normal;font-variant-caps:normal;font-variant-numeric:normal;font-variant-alternates:normal;font-feature-settings:normal;text-indent:0;text-align:start;text-decoration-line:none;text-decoration-style:solid;text-decoration-color:#000;text-transform:none;text-orientation:mixed;shape-padding:0;isolation:auto;mix-blend-mode:normal"></path>
        <path fill="#586597" d="m -1376.2239,736.81979 a 0.5,0.5 0 0 0 0.5,0.5 0.5,0.5 0 0 0 0.5,-0.5 0.5,0.5 0 0 0 -0.5,-0.5 0.5,0.5 0 0 0 -0.5,0.5 z"></path>
    </g>
</svg>